<svg xmlns="http://www.w3.org/2000/svg" width="28.8" height="32" viewBox="0 0 28.8 32"><path d="M30.488,15.1A19.04,19.04,0,0,0,27,14.8a10.256,10.256,0,0,0-1.984.128,9.456,9.456,0,0,0-3.056-2.64,6.1,6.1,0,0,0,1.6-4.112,6.176,6.176,0,1,0-12.352,0,6.1,6.1,0,0,0,1.6,4.112,9.776,9.776,0,0,0-3.056,2.624A11.142,11.142,0,0,0,7.8,14.8a19.04,19.04,0,0,0-3.488.336A1.6,1.6,0,0,0,3,16.736v13.2A1.61,1.61,0,0,0,4.888,31.52,15.6,15.6,0,0,1,7.8,31.168a15.824,15.824,0,0,1,8.72,2.608h0l.208.08h0A1.744,1.744,0,0,0,17.4,34a1.392,1.392,0,0,0,.448-.08h.112l.208-.08h0A15.824,15.824,0,0,1,27,31.168a15.6,15.6,0,0,1,2.912.288A1.61,1.61,0,0,0,31.8,29.872v-13.2A1.6,1.6,0,0,0,30.488,15.1ZM17.4,5.2a2.976,2.976,0,0,1,0,5.936h0a2.976,2.976,0,0,1,0-5.936ZM15.8,29.728a19.072,19.072,0,0,0-8-1.76,10.829,10.829,0,0,0-1.6.08V18a15.408,15.408,0,0,1,4.032.08h.176A16,16,0,0,1,15.8,20.128ZM17.4,17.36a18.831,18.831,0,0,0-2.208-1.088h-.1c-.528-.208-1.056-.416-1.6-.576A6.4,6.4,0,0,1,17.4,14.3h0a6.4,6.4,0,0,1,3.9,1.36,19.888,19.888,0,0,0-3.9,1.7ZM28.6,28.048a18.56,18.56,0,0,0-9.6,1.6v-9.6A15.616,15.616,0,0,1,24.392,18.1h.32A15.024,15.024,0,0,1,28.6,18Z" transform="translate(-3 -2)" fill="#ff7e3d"/></svg>