<svg id="_034-instagram" data-name="034-instagram" xmlns="http://www.w3.org/2000/svg" width="16" height="16" viewBox="0 0 16 16">
  <path id="Контур_76" data-name="Контур 76" d="M11,0H5A5,5,0,0,0,0,5v6a5,5,0,0,0,5,5h6a5,5,0,0,0,5-5V5A5,5,0,0,0,11,0Zm3.5,11A3.5,3.5,0,0,1,11,14.5H5A3.5,3.5,0,0,1,1.5,11V5A3.5,3.5,0,0,1,5,1.5h6A3.5,3.5,0,0,1,14.5,5Z" fill="#fff"/>
  <path id="Контур_77" data-name="Контур 77" d="M131.977,128a3.977,3.977,0,1,0,3.977,3.977A3.978,3.978,0,0,0,131.977,128Zm0,6.463a2.486,2.486,0,1,1,2.486-2.486A2.489,2.489,0,0,1,131.977,134.463Z" transform="translate(-123.977 -123.977)" fill="#fff"/>
  <ellipse id="Эллипс_36" data-name="Эллипс 36" cx="0.536" cy="0.536" rx="0.536" ry="0.536" transform="translate(11.762 3.166)" fill="#fff"/>
</svg>
