<svg xmlns="http://www.w3.org/2000/svg" width="40" height="40" viewBox="0 0 40 40">
  <path id="presentation-play" d="M40,26H38V6h2a2,2,0,1,0,0-4H4A2,2,0,0,0,4,6H6V26H4a2,2,0,0,0,0,4H20v2.3l-9.1,6A2,2,0,0,0,12,42a1.88,1.88,0,0,0,1.1-.34L20,37.1V40a2,2,0,0,0,4,0V37.1l6.9,4.56A1.88,1.88,0,0,0,32,42a2,2,0,0,0,1.1-3.66l-9.1-6V30H40a2,2,0,0,0,0-4Zm-6,0H10V6H34ZM17.22,22.52a3.46,3.46,0,0,0,3.52,0l6-3.48a3.52,3.52,0,0,0,0-6l-6-3.48a3.46,3.46,0,0,0-3.52,0,3.42,3.42,0,0,0-1.74,3.04v6.96A3.42,3.42,0,0,0,17.22,22.52Zm2.26-9.16L24,16l-4.56,2.64Z" transform="translate(-2 -2)" fill="#ff7e3d"/>
</svg>
