<svg xmlns="http://www.w3.org/2000/svg" width="20.001" height="20" viewBox="0 0 20.001 20">
  <path id="message" d="M20.425,9.332,6.34,2.32a3,3,0,0,0-4.08,3.9l2.4,5.372h0a1.061,1.061,0,0,1,0,.82l-2.4,5.372A3,3,0,0,0,5,22.006a3.139,3.139,0,0,0,1.35-.32l14-7A3,3,0,0,0,22,12a2.91,2.91,0,0,0-1.567-2.671Zm-.975,3.561-14,7a1,1,0,0,1-1.35-1.3l2.39-5.372A2.733,2.733,0,0,0,6.852,12a2.733,2.733,0,0,0-.362-1.22L4.1,5.411a1,1,0,0,1,1.35-1.3l14,7a1,1,0,0,1,0,1.781Z" transform="translate(-2.001 -2.006)" fill="#fff"/>
</svg>
