<svg xmlns="http://www.w3.org/2000/svg" width="31.999" height="32" viewBox="0 0 31.999 32">
  <g id="Sign_Tangram_Studio" transform="translate(-0.001)">
    <path id="_1" data-name=" 1" d="M565,360.46l13.745,13.733L565,387.931Z" transform="translate(-564.999 -358.196)" fill="#fce251"/>
    <path id="_2" data-name=" 2" d="M568.959,356.5h27.467l-13.733,13.745Z" transform="translate(-566.695 -356.5)" fill="#009be3"/>
    <path id="_3" data-name=" 3" d="M610.959,366.2l5.741-5.741v11.481h0Z" transform="translate(-584.701 -358.196)" fill="#0247fc"/>
    <path id="Subtraction_20" data-name="Subtraction 20" d="M610.7,402.206H596.959L610.7,388.459Zm-3.812-5.717a1.905,1.905,0,1,0,1.348.559,1.905,1.905,0,0,0-1.348-.559Zm0,3.54a1.633,1.633,0,1,1,1.633-1.635,1.633,1.633,0,0,1-1.633,1.635Zm-.4-1.467h.469l.533.844h.283l-.559-.888a.622.622,0,0,0,.257-.133.524.524,0,0,0,.183-.427.551.551,0,0,0-.181-.435.7.7,0,0,0-.481-.16h-.743V399.4h.237Zm.5-.228h-.5V397.6h.5a.465.465,0,0,1,.313.091.413.413,0,0,1,0,.545.462.462,0,0,1-.313.089Z" transform="translate(-578.705 -370.206)" fill="#16e238"/>
    <path id="_5" data-name=" 5" d="M568.949,408.9l4.8-4.8H585.23l-4.8,4.8Z" transform="translate(-566.691 -376.903)" fill="#ff8d0a"/>
    <path id="_6" data-name=" 6" d="M582.949,394.2l5.747-5.744,5.741,5.74h0Z" transform="translate(-572.696 -370.197)" fill="#fe2713"/>
    <path id="_7" data-name=" 7" d="M596.959,380.2l5.741-5.741,5.741,5.741-5.741,5.741Z" transform="translate(-578.705 -364.2)" fill="#7301ae"/>
  </g>
</svg>
