<svg id="_002-youtube" data-name="002-youtube" xmlns="http://www.w3.org/2000/svg" width="16" height="11" viewBox="0 0 16 11">
  <path id="Вычитание_1" data-name="Вычитание 1" d="M8,11c-1.965,0-4.472-.031-5.459-.089-.963-.065-1.435-.215-1.866-.977C.215,9.145,0,7.738,0,5.505V5.5C0,3.237.209,1.867.678,1.06,1.112.293,1.584.146,2.544.091,3.549.024,6.113,0,8,0s4.452.024,5.454.092c.96.054,1.432.2,1.864.968.47.8.68,2.17.68,4.438v.008c0,2.269-.209,3.635-.679,4.429-.428.761-.9.911-1.864.976C12.462,10.97,9.96,11,8,11ZM5.985,2.515V8.486L11.013,5.5Z" transform="translate(0 0)" fill="#fff"/>
</svg>
